<svg xmlns="http://www.w3.org/2000/svg" xmlns:xlink="http://www.w3.org/1999/xlink" version="1.1" width="256" height="256" viewBox="0 0 256 256" xml:space="preserve">
<g style="stroke: none; stroke-width: 0; stroke-dasharray: none; stroke-linecap: butt; stroke-linejoin: miter; stroke-miterlimit: 10; fill: none; fill-rule: nonzero; opacity: 1;" transform="translate(1.4065934065934016 1.4065934065934016) scale(2.81 2.81)">
	<path d="M 16.819 88.339 c -1.862 0 -3.377 -1.516 -3.377 -3.378 V 5.039 c 0 -1.862 1.515 -3.377 3.377 -3.377 h 56.361 c 1.862 0 3.378 1.515 3.378 3.377 v 79.922 c 0 1.862 -1.516 3.378 -3.378 3.378 H 16.819 z M 45 79.447 c -2.441 0 -4.427 1.985 -4.427 4.426 c 0 2.441 1.986 4.427 4.427 4.427 c 2.441 0 4.427 -1.985 4.427 -4.427 C 49.427 81.433 47.441 79.447 45 79.447 z M 16.819 1.963 c -1.696 0 -3.076 1.38 -3.076 3.076 v 74.048 h 62.512 V 5.039 c 0 -1.696 -1.379 -3.076 -3.075 -3.076 H 16.819 z" style="stroke: none; stroke-width: 1; stroke-dasharray: none; stroke-linecap: butt; stroke-linejoin: miter; stroke-miterlimit: 10; fill: rgb(0,0,0); fill-rule: nonzero; opacity: 1;" transform=" matrix(1 0 0 1 0 0) " stroke-linecap="round"/>
	<path d="M 74.897 80.749 v 4.212 c 0 0.93 -0.786 1.716 -1.716 1.716 H 50.403 c 0.437 -0.84 0.685 -1.793 0.685 -2.804 c 0 -1.141 -0.316 -2.21 -0.864 -3.124 h 24.371 H 74.897 M 39.776 80.749 c -0.549 0.914 -0.864 1.983 -0.864 3.124 c 0 1.01 0.247 1.964 0.685 2.804 H 16.819 c -0.93 0 -1.716 -0.786 -1.716 -1.716 v -4.212 h 0.302 H 39.776 M 73.181 0 H 16.819 c -2.771 0 -5.039 2.268 -5.039 5.039 v 79.922 c 0 2.771 2.268 5.039 5.039 5.039 h 56.361 c 2.771 0 5.039 -2.268 5.039 -5.039 V 5.039 C 78.22 2.268 75.952 0 73.181 0 L 73.181 0 z M 15.405 77.426 V 5.039 c 0 -0.766 0.648 -1.414 1.414 -1.414 h 56.361 c 0.766 0 1.414 0.647 1.414 1.414 v 72.387 H 15.405 L 15.405 77.426 z M 45 86.639 c -1.527 0 -2.765 -1.238 -2.765 -2.765 c 0 -1.527 1.238 -2.765 2.765 -2.765 s 2.765 1.238 2.765 2.765 C 47.765 85.401 46.527 86.639 45 86.639 L 45 86.639 z" style="stroke: none; stroke-width: 1; stroke-dasharray: none; stroke-linecap: butt; stroke-linejoin: miter; stroke-miterlimit: 10; fill: rgb(0,0,0); fill-rule: nonzero; opacity: 1;" transform=" matrix(1 0 0 1 0 0) " stroke-linecap="round"/>
</g>
</svg>