<?xml version="1.0" encoding="UTF-8"?>
<!DOCTYPE svg PUBLIC "-//W3C//DTD SVG 1.1//EN" "http://www.w3.org/Graphics/SVG/1.1/DTD/svg11.dtd">
<!-- Creator: CorelDRAW 2020 (64-Bit) -->
<svg xmlns="http://www.w3.org/2000/svg" xml:space="preserve" width="382px" height="512px" version="1.1" style="shape-rendering:geometricPrecision; text-rendering:geometricPrecision; image-rendering:optimizeQuality; fill-rule:evenodd; clip-rule:evenodd"
viewBox="0 0 55.48 74.18"
 xmlns:xlink="http://www.w3.org/1999/xlink"
 xmlns:xodm="http://www.corel.com/coreldraw/odm/2003">
 <defs>
  <style type="text/css">
   <![CDATA[
    .fil0 {fill:#FF6600}
    .fil2 {fill:white;fill-rule:nonzero}
    .fil1 {fill:white;fill-opacity:0.301961}
   ]]>
  </style>
 </defs>
 <g id="Vrstva_x0020_1">
  <metadata id="CorelCorpID_0Corel-Layer"/>
  <path class="fil0" d="M9.65 0l24.82 0 21.01 21.92 0 42.61c0,5.33 -4.32,9.65 -9.65,9.65l-36.18 0c-5.33,0 -9.65,-4.32 -9.65,-9.65l0 -54.88c0,-5.33 4.32,-9.65 9.65,-9.65z"/>
  <polygon class="fil1" points="34.44,0 34.44,21.74 55.48,21.74 "/>
  <path class="fil2" d="M17.64 55.35l3.75 0c0.1,0 0.19,-0.07 0.21,-0.16l1.1 -3.95 4.25 0 1.18 3.95c0.03,0.09 0.12,0.16 0.22,0.16l3.89 0c0,0 0,0 0,0 0.13,0 0.23,-0.1 0.23,-0.22 0,-0.04 -0.01,-0.07 -0.02,-0.1l-4.96 -15.98c-0.03,-0.09 -0.11,-0.15 -0.21,-0.15l-4.75 0c-0.1,0 -0.19,0.06 -0.21,0.15l-4.9 16.01c-0.02,0.07 0,0.14 0.04,0.2 0.04,0.05 0.11,0.09 0.18,0.09zm18.26 -13.04c1.26,0 2.17,-0.85 2.17,-2.03 -0.03,-1.21 -0.91,-2.05 -2.15,-2.05 -0.63,0 -1.19,0.22 -1.58,0.61 -0.36,0.37 -0.55,0.89 -0.54,1.44 -0.01,0.54 0.18,1.04 0.55,1.41 0.38,0.4 0.93,0.62 1.55,0.62zm-1.78 0.98c-0.13,0 -0.23,0.1 -0.23,0.22l0 11.62c0,0.12 0.1,0.22 0.23,0.22l3.61 0c0.12,0 0.22,-0.1 0.22,-0.22l0 -11.62c0,-0.12 -0.1,-0.22 -0.22,-0.22l-3.61 0zm-7.83 4.8l-2.94 0 0.87 -3.12c0.15,-0.56 0.3,-1.22 0.45,-1.86 0.03,-0.15 0.06,-0.29 0.1,-0.44 0.19,0.77 0.4,1.6 0.61,2.31l0.91 3.11z"/>
 </g>
</svg>
