<?xml version="1.0" encoding="UTF-8"?>
<!DOCTYPE svg PUBLIC "-//W3C//DTD SVG 1.1//EN" "http://www.w3.org/Graphics/SVG/1.1/DTD/svg11.dtd">
<!-- Creator: CorelDRAW 2020 (64-Bit) -->
<svg xmlns="http://www.w3.org/2000/svg" xml:space="preserve" width="382px" height="512px" version="1.1" style="shape-rendering:geometricPrecision; text-rendering:geometricPrecision; image-rendering:optimizeQuality; fill-rule:evenodd; clip-rule:evenodd"
viewBox="0 0 20.49 27.4"
 xmlns:xlink="http://www.w3.org/1999/xlink"
 xmlns:xodm="http://www.corel.com/coreldraw/odm/2003">
 <defs>
  <style type="text/css">
   <![CDATA[
    .fil0 {fill:#092F41}
    .fil2 {fill:white;fill-rule:nonzero}
    .fil1 {fill:white;fill-opacity:0.301961}
   ]]>
  </style>
 </defs>
 <g id="Vrstva_x0020_1">
  <metadata id="CorelCorpID_0Corel-Layer"/>
  <path class="fil0" d="M3.56 0l9.17 0 7.76 8.1 0 15.73c0,1.97 -1.59,3.57 -3.56,3.57l-13.37 0c-1.96,0 -3.56,-1.6 -3.56,-3.57l0 -20.27c0,-1.96 1.6,-3.56 3.56,-3.56z"/>
  <polygon class="fil1" points="12.72,0 12.72,8.03 20.49,8.03 "/>
  <path class="fil2" d="M6.94 19.18l-0.3 -0.88 -1.53 0 -0.3 0.88 -1.23 0 1.73 -4.64 1.12 0 1.73 4.64 -1.22 0zm-1.49 -1.86l0.85 0 -0.43 -1.23 -0.42 1.23zm3.08 1.86l0 -4.64 1.98 0c0.48,0 0.87,0.14 1.16,0.41 0.3,0.27 0.44,0.63 0.44,1.08 0,0.45 -0.14,0.81 -0.44,1.08 -0.29,0.27 -0.68,0.4 -1.16,0.4l-0.79 0 0 1.67 -1.19 0zm1.19 -2.68l0.66 0c0.17,0 0.31,-0.04 0.41,-0.12 0.09,-0.09 0.14,-0.2 0.14,-0.35 0,-0.15 -0.05,-0.27 -0.14,-0.35 -0.1,-0.09 -0.24,-0.13 -0.41,-0.13l-0.66 0 0 0.95zm5.7 2.68l-1.24 -1.91 -0.39 0.42 0 1.49 -1.19 0 0 -4.64 1.19 0 0 1.57 1.44 -1.57 1.54 0 -1.76 1.87 1.9 2.77 -1.49 0z"/>
 </g>
</svg>
