<?xml version="1.0" encoding="UTF-8"?>
<!DOCTYPE svg PUBLIC "-//W3C//DTD SVG 1.1//EN" "http://www.w3.org/Graphics/SVG/1.1/DTD/svg11.dtd">
<!-- Creator: CorelDRAW 2020 (64-Bit) -->
<svg xmlns="http://www.w3.org/2000/svg" xml:space="preserve" width="382px" height="512px" version="1.1" style="shape-rendering:geometricPrecision; text-rendering:geometricPrecision; image-rendering:optimizeQuality; fill-rule:evenodd; clip-rule:evenodd"
viewBox="0 0 20.49 27.4"
 xmlns:xlink="http://www.w3.org/1999/xlink"
 xmlns:xodm="http://www.corel.com/coreldraw/odm/2003">
 <defs>
  <style type="text/css">
   <![CDATA[
    .fil0 {fill:#008BF5}
    .fil2 {fill:white;fill-rule:nonzero}
    .fil1 {fill:white;fill-opacity:0.301961}
   ]]>
  </style>
 </defs>
 <g id="Vrstva_x0020_1">
  <metadata id="CorelCorpID_0Corel-Layer"/>
  <path class="fil0" d="M3.56 0l9.17 0 7.76 8.1 0 15.73c0,1.97 -1.59,3.57 -3.56,3.57l-13.37 0c-1.96,0 -3.56,-1.6 -3.56,-3.57l0 -20.27c0,-1.96 1.6,-3.56 3.56,-3.56z"/>
  <polygon class="fil1" points="12.72,0 12.72,8.03 20.49,8.03 "/>
  <path class="fil2" d="M13.38 13.94c-1.73,-1.73 -4.53,-1.73 -6.26,0 -1.73,1.73 -1.73,4.53 0,6.26 1.73,1.73 4.53,1.73 6.26,0 1.72,-1.73 1.72,-4.53 0,-6.26zm-5.54 6.22c-0.26,-0.19 -0.49,-0.42 -0.68,-0.68 0.58,-0.44 1.17,-0.87 1.75,-1.31 0.08,0.11 0.13,0.16 0.24,0.24 -0.44,0.58 -0.87,1.17 -1.31,1.75zm3.31 -2.19c-0.5,0.5 -1.31,0.5 -1.8,0 -0.5,-0.5 -0.5,-1.3 0,-1.8 0.49,-0.49 1.3,-0.49 1.8,0 0.49,0.5 0.49,1.3 0,1.8zm0.43 -2c-0.08,-0.11 -0.13,-0.15 -0.23,-0.23 0.43,-0.59 0.87,-1.17 1.3,-1.76 0.26,0.19 0.49,0.43 0.69,0.69 -0.59,0.43 -1.17,0.87 -1.76,1.3z"/>
 </g>
</svg>
