<?xml version="1.0" encoding="UTF-8"?>
<!DOCTYPE svg PUBLIC "-//W3C//DTD SVG 1.1//EN" "http://www.w3.org/Graphics/SVG/1.1/DTD/svg11.dtd">
<!-- Creator: CorelDRAW 2020 (64-Bit) -->
<svg xmlns="http://www.w3.org/2000/svg" xml:space="preserve" width="382px" height="512px" version="1.1" style="shape-rendering:geometricPrecision; text-rendering:geometricPrecision; image-rendering:optimizeQuality; fill-rule:evenodd; clip-rule:evenodd"
viewBox="0 0 24.33 32.53"
 xmlns:xlink="http://www.w3.org/1999/xlink"
 xmlns:xodm="http://www.corel.com/coreldraw/odm/2003">
 <defs>
  <style type="text/css">
   <![CDATA[
    .fil0 {fill:#0E1E31}
    .fil2 {fill:white;fill-rule:nonzero}
    .fil1 {fill:white;fill-opacity:0.301961}
   ]]>
  </style>
 </defs>
 <g id="Vrstva_x0020_1">
  <metadata id="CorelCorpID_0Corel-Layer"/>
  <path class="fil0" d="M4.23 0l10.88 0 9.22 9.61 0 18.69c0,2.33 -1.9,4.23 -4.23,4.23l-15.87 0c-2.34,0 -4.23,-1.9 -4.23,-4.23l0 -24.07c0,-2.34 1.89,-4.23 4.23,-4.23z"/>
  <polygon class="fil1" points="15.1,0 15.1,9.53 24.33,9.53 "/>
  <path class="fil2" d="M16.12 22.83l-3.68 -8.19 -0.56 0 -3.52 8.19 -1.05 0 0 0.56 3.03 0 0 -0.56 -1.36 0 0.9 -2.11 3.35 0 0.94 2.11 -0.94 0 0 0.56 3.79 0 0 -0.56 -0.9 0zm-5.99 -2.68l1.39 -3.23 1.45 3.23 -2.84 0z"/>
 </g>
</svg>
