<?xml version="1.0" encoding="UTF-8"?>
<!DOCTYPE svg PUBLIC "-//W3C//DTD SVG 1.1//EN" "http://www.w3.org/Graphics/SVG/1.1/DTD/svg11.dtd">
<!-- Creator: CorelDRAW 2020 (64-Bit) -->
<svg xmlns="http://www.w3.org/2000/svg" xml:space="preserve" width="382px" height="512px" version="1.1" style="shape-rendering:geometricPrecision; text-rendering:geometricPrecision; image-rendering:optimizeQuality; fill-rule:evenodd; clip-rule:evenodd"
viewBox="0 0 17.69 23.65"
 xmlns:xlink="http://www.w3.org/1999/xlink"
 xmlns:xodm="http://www.corel.com/coreldraw/odm/2003">
 <defs>
  <style type="text/css">
   <![CDATA[
    .fil0 {fill:#60A313}
    .fil2 {fill:white;fill-rule:nonzero}
    .fil1 {fill:white;fill-opacity:0.301961}
   ]]>
  </style>
 </defs>
 <g id="Vrstva_x0020_1">
  <metadata id="CorelCorpID_0Corel-Layer"/>
  <path class="fil0" d="M3.08 0l7.91 0 6.7 6.99 0 13.58c0,1.7 -1.38,3.08 -3.08,3.08l-11.53 0c-1.7,0 -3.08,-1.38 -3.08,-3.08l0 -17.49c0,-1.7 1.38,-3.08 3.08,-3.08z"/>
  <polygon class="fil1" points="10.98,0 10.98,6.93 17.69,6.93 "/>
  <path class="fil2" d="M6 17.87c-0.14,0 -0.26,-0.02 -0.37,-0.07 -0.12,-0.04 -0.22,-0.11 -0.31,-0.2 -0.09,-0.09 -0.16,-0.19 -0.21,-0.31 -0.04,-0.11 -0.06,-0.23 -0.06,-0.37l0 -1.29c0,-0.14 -0.04,-0.24 -0.11,-0.31 -0.08,-0.06 -0.19,-0.1 -0.35,-0.1l-0.07 0 0 -1 0.07 0c0.16,0 0.27,-0.03 0.35,-0.1 0.07,-0.07 0.11,-0.17 0.11,-0.31l0 -1.29c0,-0.13 0.02,-0.26 0.06,-0.37 0.05,-0.11 0.12,-0.22 0.21,-0.31 0.09,-0.09 0.19,-0.16 0.31,-0.2 0.11,-0.05 0.23,-0.07 0.37,-0.07l0.51 0 0 0.97 -0.17 0c-0.09,0 -0.15,0.02 -0.19,0.06 -0.04,0.05 -0.06,0.12 -0.06,0.22l0 1.21c0,0.1 -0.02,0.2 -0.04,0.28 -0.03,0.08 -0.07,0.15 -0.12,0.21 -0.05,0.05 -0.11,0.1 -0.18,0.15l-0.1 0.05 0.1 0.05c0.07,0.05 0.13,0.1 0.18,0.15 0.11,0.11 0.16,0.28 0.16,0.49l0 1.22c0,0.09 0.02,0.17 0.06,0.21 0.04,0.04 0.1,0.07 0.19,0.07l0.17 0 0 0.96 -0.51 0zm5.69 0l-0.51 0 0 -0.96 0.17 0c0.08,0 0.15,-0.03 0.19,-0.07 0.04,-0.04 0.06,-0.12 0.06,-0.21l0 -1.22c0,-0.1 0.01,-0.2 0.04,-0.28 0.02,-0.08 0.06,-0.15 0.11,-0.21 0.05,-0.05 0.11,-0.1 0.19,-0.15l0.09 -0.05 -0.09 -0.05c-0.07,-0.05 -0.13,-0.1 -0.18,-0.15 -0.06,-0.06 -0.1,-0.13 -0.12,-0.21 -0.03,-0.08 -0.04,-0.18 -0.04,-0.28l0 -1.21c0,-0.1 -0.02,-0.17 -0.06,-0.22 -0.04,-0.04 -0.11,-0.06 -0.19,-0.06l-0.17 0 0 -0.97 0.51 0c0.13,0 0.26,0.02 0.37,0.07 0.12,0.04 0.22,0.11 0.31,0.2 0.09,0.09 0.16,0.19 0.2,0.31 0.05,0.11 0.07,0.24 0.07,0.37l0 1.29c0,0.14 0.04,0.24 0.11,0.31 0.07,0.07 0.19,0.1 0.35,0.1l0.07 0 0 1 -0.07 0c-0.16,0 -0.28,0.04 -0.35,0.1 -0.07,0.07 -0.11,0.17 -0.11,0.31l0 1.29c0,0.27 -0.09,0.5 -0.27,0.68 -0.09,0.09 -0.19,0.16 -0.31,0.2 -0.11,0.05 -0.24,0.07 -0.37,0.07zm-3.1 -4.37l1.09 0 0 1.12 -1.16 0 0 -1.12 0.07 0zm-0.6 4.15l0.46 -1.9 1.3 0c-0.34,0.66 -0.67,1.32 -1,1.99l-0.78 0 0.02 -0.09z"/>
 </g>
</svg>
