<?xml version="1.0" encoding="UTF-8"?>
<!DOCTYPE svg PUBLIC "-//W3C//DTD SVG 1.1//EN" "http://www.w3.org/Graphics/SVG/1.1/DTD/svg11.dtd">
<!-- Creator: CorelDRAW 2020 (64-Bit) -->
<svg xmlns="http://www.w3.org/2000/svg" xml:space="preserve" width="382px" height="512px" version="1.1" style="shape-rendering:geometricPrecision; text-rendering:geometricPrecision; image-rendering:optimizeQuality; fill-rule:evenodd; clip-rule:evenodd"
viewBox="0 0 24.33 32.53"
 xmlns:xlink="http://www.w3.org/1999/xlink"
 xmlns:xodm="http://www.corel.com/coreldraw/odm/2003">
 <defs>
  <style type="text/css">
   <![CDATA[
    .fil0 {fill:#9900CC}
    .fil2 {fill:white;fill-rule:nonzero}
    .fil1 {fill:white;fill-opacity:0.301961}
   ]]>
  </style>
 </defs>
 <g id="Vrstva_x0020_1">
  <metadata id="CorelCorpID_0Corel-Layer"/>
  <path class="fil0" d="M4.23 0l10.88 0 9.22 9.61 0 18.69c0,2.33 -1.9,4.23 -4.23,4.23l-15.87 0c-2.34,0 -4.23,-1.9 -4.23,-4.23l0 -24.07c0,-2.34 1.89,-4.23 4.23,-4.23z"/>
  <polygon class="fil1" points="15.1,0 15.1,9.53 24.33,9.53 "/>
  <path class="fil2" d="M15.07 21.38c0.31,-0.52 0.52,-1.18 0.56,-1.83 0.02,-0.42 -0.07,-0.86 -0.27,-1.27 -0.32,-0.65 -0.86,-1.01 -1.39,-1.37 -0.39,-0.26 -0.76,-0.51 -1.02,-0.86l-0.05 -0.06c-0.15,-0.21 -0.33,-0.45 -0.36,-0.65 -0.02,-0.2 -0.21,-0.34 -0.4,-0.33 -0.21,0.02 -0.36,0.18 -0.36,0.39l0 6.86c-0.32,-0.2 -0.72,-0.32 -1.16,-0.32 -1.06,0 -1.92,0.69 -1.92,1.54 0,0.85 0.86,1.54 1.92,1.54 1.06,0 1.93,-0.69 1.93,-1.54l0 -4.49c0.58,0.23 1.52,0.79 1.78,2.1 -0.05,0.07 -0.09,0.15 -0.15,0.21 -0.14,0.16 -0.12,0.4 0.04,0.55 0.16,0.14 0.4,0.12 0.54,-0.04 0.1,-0.12 0.2,-0.25 0.28,-0.4 0.01,-0.01 0.02,-0.02 0.03,-0.03z"/>
 </g>
</svg>
