<?xml version="1.0" encoding="UTF-8"?>
<!DOCTYPE svg PUBLIC "-//W3C//DTD SVG 1.1//EN" "http://www.w3.org/Graphics/SVG/1.1/DTD/svg11.dtd">
<!-- Creator: CorelDRAW 2020 (64-Bit) -->
<svg xmlns="http://www.w3.org/2000/svg" xml:space="preserve" width="382px" height="512px" version="1.1" style="shape-rendering:geometricPrecision; text-rendering:geometricPrecision; image-rendering:optimizeQuality; fill-rule:evenodd; clip-rule:evenodd"
viewBox="0 0 38.89 51.99"
 xmlns:xlink="http://www.w3.org/1999/xlink"
 xmlns:xodm="http://www.corel.com/coreldraw/odm/2003">
 <defs>
  <style type="text/css">
   <![CDATA[
    .fil0 {fill:#FA0000}
    .fil2 {fill:white;fill-rule:nonzero}
    .fil1 {fill:white;fill-opacity:0.301961}
   ]]>
  </style>
 </defs>
 <g id="Vrstva_x0020_1">
  <metadata id="CorelCorpID_0Corel-Layer"/>
  <path class="fil0" d="M6.76 0l17.4 0 14.73 15.36 0 29.87c0,3.73 -3.03,6.76 -6.77,6.76l-25.36 0c-3.73,0 -6.76,-3.03 -6.76,-6.76l0 -38.47c0,-3.73 3.03,-6.76 6.76,-6.76z"/>
  <polygon class="fil1" points="24.14,0 24.14,15.24 38.89,15.24 "/>
  <path class="fil2" d="M25.73 31.47l-9.59 -5.4c-0.19,-0.1 -0.42,-0.1 -0.6,0.01 -0.18,0.1 -0.3,0.3 -0.3,0.51l0 10.8c0,0.21 0.12,0.41 0.3,0.52 0.09,0.05 0.2,0.08 0.3,0.08 0.1,0 0.21,-0.02 0.3,-0.08l9.59 -5.39c0.19,-0.11 0.31,-0.31 0.31,-0.53 0,-0.21 -0.12,-0.41 -0.31,-0.52z"/>
 </g>
</svg>
