<?xml version="1.0" encoding="UTF-8"?>
<!DOCTYPE svg PUBLIC "-//W3C//DTD SVG 1.1//EN" "http://www.w3.org/Graphics/SVG/1.1/DTD/svg11.dtd">
<!-- Creator: CorelDRAW 2020 (64-Bit) -->
<svg xmlns="http://www.w3.org/2000/svg" xml:space="preserve" width="382px" height="512px" version="1.1" style="shape-rendering:geometricPrecision; text-rendering:geometricPrecision; image-rendering:optimizeQuality; fill-rule:evenodd; clip-rule:evenodd"
viewBox="0 0 29.93 40.02"
 xmlns:xlink="http://www.w3.org/1999/xlink"
 xmlns:xodm="http://www.corel.com/coreldraw/odm/2003">
 <defs>
  <style type="text/css">
   <![CDATA[
    .fil0 {fill:#E03303}
    .fil2 {fill:white;fill-rule:nonzero}
    .fil1 {fill:white;fill-opacity:0.301961}
   ]]>
  </style>
 </defs>
 <g id="Vrstva_x0020_1">
  <metadata id="CorelCorpID_0Corel-Layer"/>
  <path class="fil0" d="M5.21 0l13.38 0 11.34 11.82 0 22.99c0,2.88 -2.33,5.21 -5.2,5.21l-19.52 0c-2.88,0 -5.21,-2.33 -5.21,-5.21l0 -29.6c0,-2.88 2.33,-5.21 5.21,-5.21z"/>
  <polygon class="fil1" points="18.58,0 18.58,11.73 29.93,11.73 "/>
  <path class="fil2" d="M6.29 28.63l0 -7.27 3.09 0c0.76,0 1.37,0.21 1.83,0.64 0.45,0.42 0.68,0.98 0.68,1.69 0,0.7 -0.23,1.27 -0.68,1.69 -0.46,0.42 -1.07,0.63 -1.83,0.63l-1.24 0 0 2.62 -1.85 0zm1.85 -4.2l1.03 0c0.28,0 0.49,-0.06 0.65,-0.19 0.15,-0.13 0.22,-0.32 0.22,-0.55 0,-0.24 -0.07,-0.42 -0.22,-0.55 -0.16,-0.13 -0.37,-0.2 -0.65,-0.2l-1.03 0 0 1.49zm4.53 4.2l0 -7.27 3.09 0c0.76,0 1.37,0.21 1.83,0.64 0.46,0.42 0.68,0.98 0.68,1.69 0,0.7 -0.22,1.27 -0.68,1.69 -0.46,0.42 -1.07,0.63 -1.83,0.63l-1.23 0 0 2.62 -1.86 0zm1.86 -4.2l1.02 0c0.28,0 0.5,-0.06 0.65,-0.19 0.15,-0.13 0.23,-0.32 0.23,-0.55 0,-0.24 -0.08,-0.42 -0.23,-0.55 -0.15,-0.13 -0.37,-0.2 -0.65,-0.2l-1.02 0 0 1.49zm6.41 4.2l0 -5.69 -2.07 0 0 -1.58 6.01 0 0 1.58 -2.08 0 0 5.69 -1.86 0z"/>
 </g>
</svg>
