<?xml version="1.0" encoding="UTF-8"?>
<!DOCTYPE svg PUBLIC "-//W3C//DTD SVG 1.1//EN" "http://www.w3.org/Graphics/SVG/1.1/DTD/svg11.dtd">
<!-- Creator: CorelDRAW 2020 (64-Bit) -->
<svg xmlns="http://www.w3.org/2000/svg" xml:space="preserve" width="382px" height="512px" version="1.1" style="shape-rendering:geometricPrecision; text-rendering:geometricPrecision; image-rendering:optimizeQuality; fill-rule:evenodd; clip-rule:evenodd"
viewBox="0 0 55.48 74.18"
 xmlns:xlink="http://www.w3.org/1999/xlink"
 xmlns:xodm="http://www.corel.com/coreldraw/odm/2003">
 <defs>
  <style type="text/css">
   <![CDATA[
    .fil0 {fill:#FA0000}
    .fil2 {fill:white;fill-rule:nonzero}
    .fil1 {fill:white;fill-opacity:0.301961}
   ]]>
  </style>
 </defs>
 <g id="Vrstva_x0020_1">
  <metadata id="CorelCorpID_0Corel-Layer"/>
  <path class="fil0" d="M9.65 0l24.82 0 21.01 21.92 0 42.61c0,5.33 -4.32,9.65 -9.65,9.65l-36.18 0c-5.33,0 -9.65,-4.32 -9.65,-9.65l0 -54.88c0,-5.33 4.32,-9.65 9.65,-9.65z"/>
  <polygon class="fil1" points="34.44,0 34.44,21.74 55.48,21.74 "/>
  <path class="fil2" d="M35.04 46.02c0,-0.45 -0.34,-0.8 -0.8,-0.8 -0.46,0 -0.81,0.35 -0.81,0.8 0,3.15 -2.55,5.7 -5.69,5.7 -3.14,0 -5.69,-2.55 -5.69,-5.7 0,-0.45 -0.35,-0.8 -0.81,-0.8 -0.45,0 -0.8,0.35 -0.8,0.8 0,3.74 2.79,6.88 6.5,7.28l0 2.15 -2.93 0c-0.46,0 -0.81,0.35 -0.81,0.8 0,0.46 0.35,0.81 0.81,0.81l7.46 0c0.46,0 0.81,-0.35 0.81,-0.81 0,-0.45 -0.35,-0.8 -0.81,-0.8l-2.92 0 0 -2.15c3.7,-0.4 6.49,-3.54 6.49,-7.28zm-7.3 -11.78c-2.47,0 -4.48,2.01 -4.48,4.48l0 7.28c0,2.49 2.01,4.48 4.48,4.51 2.47,0 4.49,-2.02 4.49,-4.49l0 -7.3c0,-2.47 -2.02,-4.48 -4.49,-4.48z"/>
 </g>
</svg>
