<?xml version="1.0" encoding="UTF-8"?>
<!DOCTYPE svg PUBLIC "-//W3C//DTD SVG 1.1//EN" "http://www.w3.org/Graphics/SVG/1.1/DTD/svg11.dtd">
<!-- Creator: CorelDRAW 2020 (64-Bit) -->
<svg xmlns="http://www.w3.org/2000/svg" xml:space="preserve" width="382px" height="512px" version="1.1" style="shape-rendering:geometricPrecision; text-rendering:geometricPrecision; image-rendering:optimizeQuality; fill-rule:evenodd; clip-rule:evenodd"
viewBox="0 0 29.93 40.02"
 xmlns:xlink="http://www.w3.org/1999/xlink"
 xmlns:xodm="http://www.corel.com/coreldraw/odm/2003">
 <defs>
  <style type="text/css">
   <![CDATA[
    .fil0 {fill:#251D36}
    .fil2 {fill:white;fill-rule:nonzero}
    .fil1 {fill:white;fill-opacity:0.301961}
   ]]>
  </style>
 </defs>
 <g id="Vrstva_x0020_1">
  <metadata id="CorelCorpID_0Corel-Layer"/>
  <path class="fil0" d="M5.21 0l13.38 0 11.34 11.82 0 22.99c0,2.88 -2.33,5.21 -5.2,5.21l-19.52 0c-2.88,0 -5.21,-2.33 -5.21,-5.21l0 -29.6c0,-2.88 2.33,-5.21 5.21,-5.21z"/>
  <polygon class="fil1" points="18.58,0 18.58,11.73 29.93,11.73 "/>
  <path class="fil2" d="M7.56 29.22l0 -5.69 -2.08 0 0 -1.58 6.01 0 0 1.58 -2.07 0 0 5.69 -1.86 0zm10.69 0l-1.95 0 -1.33 -2.23 -1.33 2.23 -1.96 0 2.31 -3.88 -2.02 -3.39 1.95 0 1.05 1.76 1.04 -1.76 1.96 0 -2.02 3.4 2.3 3.87zm2.26 0l0 -5.69 -2.07 0 0 -1.58 6.01 0 0 1.58 -2.08 0 0 5.69 -1.86 0z"/>
 </g>
</svg>
