<?xml version="1.0" encoding="UTF-8"?>
<!DOCTYPE svg PUBLIC "-//W3C//DTD SVG 1.1//EN" "http://www.w3.org/Graphics/SVG/1.1/DTD/svg11.dtd">
<!-- Creator: CorelDRAW 2020 (64-Bit) -->
<svg xmlns="http://www.w3.org/2000/svg" xml:space="preserve" width="382px" height="512px" version="1.1" style="shape-rendering:geometricPrecision; text-rendering:geometricPrecision; image-rendering:optimizeQuality; fill-rule:evenodd; clip-rule:evenodd"
viewBox="0 0 17.69 23.65"
 xmlns:xlink="http://www.w3.org/1999/xlink"
 xmlns:xodm="http://www.corel.com/coreldraw/odm/2003">
 <defs>
  <style type="text/css">
   <![CDATA[
    .fil0 {fill:#FA0000}
    .fil2 {fill:white;fill-rule:nonzero}
    .fil1 {fill:white;fill-opacity:0.301961}
   ]]>
  </style>
 </defs>
 <g id="Vrstva_x0020_1">
  <metadata id="CorelCorpID_0Corel-Layer"/>
  <path class="fil0" d="M3.08 0l7.91 0 6.7 6.99 0 13.58c0,1.7 -1.38,3.08 -3.08,3.08l-11.53 0c-1.7,0 -3.08,-1.38 -3.08,-3.08l0 -17.49c0,-1.7 1.38,-3.08 3.08,-3.08z"/>
  <polygon class="fil1" points="10.98,0 10.98,6.93 17.69,6.93 "/>
  <path class="fil2" d="M12.94 12.66c-0.08,-0.06 -0.2,-0.06 -0.29,-0.02l-1.99 1 0 -0.72c0,-0.51 -0.4,-0.91 -0.91,-0.91l-4.24 0c-0.5,0 -0.91,0.4 -0.91,0.91l0 3.63c0,0.51 0.41,0.91 0.91,0.91l4.24 0c0.51,0 0.91,-0.4 0.91,-0.91l0 -0.72 1.99 1c0.15,0.07 0.33,0.01 0.41,-0.14 0.02,-0.04 0.03,-0.09 0.03,-0.14l0 -3.63c0,-0.11 -0.06,-0.21 -0.15,-0.26zm-5.31 3.29c-0.67,0 -1.21,-0.55 -1.21,-1.22 0,-0.67 0.54,-1.21 1.21,-1.21 0.67,0 1.21,0.54 1.21,1.21 0,0.67 -0.54,1.22 -1.21,1.22z"/>
 </g>
</svg>
