<?xml version="1.0" encoding="UTF-8"?>
<!DOCTYPE svg PUBLIC "-//W3C//DTD SVG 1.1//EN" "http://www.w3.org/Graphics/SVG/1.1/DTD/svg11.dtd">
<!-- Creator: CorelDRAW 2020 (64-Bit) -->
<svg xmlns="http://www.w3.org/2000/svg" xml:space="preserve" width="382px" height="512px" version="1.1" style="shape-rendering:geometricPrecision; text-rendering:geometricPrecision; image-rendering:optimizeQuality; fill-rule:evenodd; clip-rule:evenodd"
viewBox="0 0 20.49 27.4"
 xmlns:xlink="http://www.w3.org/1999/xlink"
 xmlns:xodm="http://www.corel.com/coreldraw/odm/2003">
 <defs>
  <style type="text/css">
   <![CDATA[
    .fil0 {fill:#00733B}
    .fil2 {fill:white;fill-rule:nonzero}
    .fil1 {fill:white;fill-opacity:0.301961}
   ]]>
  </style>
 </defs>
 <g id="Vrstva_x0020_1">
  <metadata id="CorelCorpID_0Corel-Layer"/>
  <path class="fil0" d="M3.56 0l9.17 0 7.76 8.1 0 15.73c0,1.97 -1.59,3.57 -3.56,3.57l-13.37 0c-1.96,0 -3.56,-1.6 -3.56,-3.57l0 -20.27c0,-1.96 1.6,-3.56 3.56,-3.56z"/>
  <polygon class="fil1" points="12.72,0 12.72,8.03 20.49,8.03 "/>
  <path class="fil2" d="M8.52 19.95l-1.33 0 -0.91 -1.53 -0.91 1.53 -1.34 0 1.58 -2.66 -1.39 -2.31 1.34 0 0.72 1.2 0.71 -1.2 1.34 0 -1.38 2.32 1.57 2.65zm0.47 0l0 -4.97 1.27 0 0 3.89 2.16 0 0 1.08 -3.43 0zm5.53 0.06c-0.5,0 -0.94,-0.16 -1.32,-0.47 -0.37,-0.3 -0.58,-0.68 -0.61,-1.13l1.09 -0.32c0.03,0.24 0.13,0.45 0.3,0.61 0.18,0.16 0.38,0.24 0.6,0.24 0.18,0 0.33,-0.04 0.45,-0.12 0.11,-0.08 0.17,-0.19 0.17,-0.32 0,-0.11 -0.05,-0.2 -0.14,-0.28 -0.09,-0.07 -0.21,-0.13 -0.35,-0.18 -0.14,-0.05 -0.31,-0.1 -0.48,-0.14 -0.18,-0.05 -0.36,-0.11 -0.53,-0.19 -0.18,-0.07 -0.34,-0.16 -0.48,-0.27 -0.15,-0.1 -0.26,-0.25 -0.35,-0.44 -0.09,-0.18 -0.14,-0.4 -0.14,-0.65 0,-0.41 0.17,-0.75 0.52,-1.02 0.35,-0.28 0.77,-0.41 1.26,-0.41 0.49,0 0.92,0.12 1.28,0.35 0.36,0.24 0.59,0.55 0.68,0.93l-1.14 0.48c-0.05,-0.21 -0.15,-0.38 -0.29,-0.51 -0.14,-0.12 -0.32,-0.19 -0.53,-0.19 -0.16,0 -0.28,0.04 -0.38,0.1 -0.09,0.06 -0.13,0.15 -0.13,0.26 0,0.1 0.06,0.19 0.18,0.26 0.12,0.06 0.28,0.11 0.46,0.14 0.18,0.03 0.38,0.08 0.59,0.15 0.22,0.08 0.41,0.16 0.6,0.27 0.18,0.1 0.33,0.27 0.45,0.49 0.13,0.23 0.19,0.5 0.19,0.81 0,0.46 -0.18,0.84 -0.54,1.12 -0.36,0.28 -0.83,0.43 -1.41,0.43z"/>
 </g>
</svg>
